<svg width="44" height="44" viewBox="0 0 44 44" fill="none" xmlns="http://www.w3.org/2000/svg">
<path d="M23.0615 4.38717C22.753 4.16589 22.3825 4.04779 22.0028 4.04977C21.6232 4.05174 21.2539 4.17369 20.9477 4.39817C17.5853 6.83467 7.33334 15.1287 7.33334 25.6667C7.33334 31.6195 10.9047 36.7455 16.0123 39.0427C15.1385 37.8129 14.6683 36.342 14.6667 34.8333C14.6355 28.9282 21.1897 22.1962 21.4683 22C21.6231 21.8891 21.8087 21.8295 21.9991 21.8295C22.1895 21.8295 22.3751 21.8891 22.5298 22C22.8085 22.1962 29.3333 27.4523 29.3333 34.837C29.3333 36.4027 28.8292 37.8492 27.9895 39.0427C33.0953 36.7455 36.6667 31.6213 36.6667 25.6758C36.6667 14.9307 26.433 6.77967 23.0615 4.38717Z" fill="#4C40F7"/>
</svg>
